{"accessors" : [{"bufferView" : 0, "byteOffset" : 0, "componentType" : 5125, "count" : 321846, "type" : "SCALAR", "max" : [67728], "min" : [0]}, {"bufferView" : 1, "byteOffset" : 0, "componentType" : 5126, "count" : 67729, "type" : "VEC3", "max" : [28.070293426513672, 44.11207580566406, 27.686317443847656], "min" : [-106.08708953857422, -11.904541015625, -136.232421875], "name" : "POSITION"}, {"bufferView" : 1, "byteOffset" : 12, "componentType" : 5126, "count" : 67729, "type" : "VEC2", "max" : [1.761476993560791, 1.5985029935836792], "min" : [-0.9614850282669067, -0.149042010307312], "name" : "TEXCOORD_0"}], "asset" : {"generator" : "Aspose.3D 24.6.0", "version" : "2.0"}, "buffers" : [{"uri" : "data:application/octet-stream;base64,", "byteLength" : 2641972}], "bufferViews" : [{"buffer" : 0, "byteOffset" : 0, "byteLength" : 1287384, "target" : 34963}, {"buffer" : 0, "byteOffset" : 1287388, "byteLength" : 1354580, "byteStride" : 20, "target" : 34962}], "meshes" : [{"primitives" : [{"attributes" : {"POSITION" : 1, "TEXCOORD_0" : 2}, "indices" : 0, "mode" : 4}], "name" : ""}], "nodes" : [{"mesh" : 0, "name" : ""}], "scene" : 0, "scenes" : [{"nodes" : [0]}]}